<?xml version="1.0" encoding="UTF-8"?>
<!DOCTYPE svg PUBLIC "-//W3C//DTD SVG 1.1//EN" "http://www.w3.org/Graphics/SVG/1.1/DTD/svg11.dtd">
<svg xmlns="http://www.w3.org/2000/svg" version="1.1" width="200px" height="200px" style="shape-rendering:geometricPrecision; text-rendering:geometricPrecision; image-rendering:optimizeQuality; fill-rule:evenodd; clip-rule:evenodd" xmlns:xlink="http://www.w3.org/1999/xlink">
<g><path style="opacity:1" fill="#fefefe" d="M -0.5,-0.5 C 66.1667,-0.5 132.833,-0.5 199.5,-0.5C 199.5,66.1667 199.5,132.833 199.5,199.5C 132.833,199.5 66.1667,199.5 -0.5,199.5C -0.5,132.833 -0.5,66.1667 -0.5,-0.5 Z"/></g>
<g><path style="opacity:1" fill="#1d1d1d" d="M 127.5,59.5 C 131.824,60.1587 134.824,62.492 136.5,66.5C 131.68,66.8876 128.68,64.5543 127.5,59.5 Z"/></g>
<g><path style="opacity:1" fill="#1b1b1b" d="M 146.5,59.5 C 147.239,59.369 147.906,59.5357 148.5,60C 146.833,64.8255 143.499,67.1589 138.5,67C 140.408,63.5888 143.075,61.0888 146.5,59.5 Z"/></g>
<g><path style="opacity:1" fill="#141414" d="M 109.5,97.5 C 108.432,98.4345 107.099,98.7678 105.5,98.5C 106.786,95.6649 106.786,92.8316 105.5,90C 95.7519,86.7904 85.7519,85.7904 75.5,87C 66.817,88.1215 58.1504,89.2881 49.5,90.5C 49.5,89.5 49.5,88.5 49.5,87.5C 64.6807,84.3525 80.0141,83.1858 95.5,84C 99.965,84.6995 104.298,85.8661 108.5,87.5C 120.575,84.3025 130.909,78.3025 139.5,69.5C 140.167,69.8333 140.833,70.1667 141.5,70.5C 139.733,73.7698 137.4,76.6032 134.5,79C 127.96,82.7698 121.293,86.2698 114.5,89.5C 116.933,91.0538 119.6,91.7204 122.5,91.5C 122.5,92.5 122.5,93.5 122.5,94.5C 117.571,94.7465 112.905,93.7465 108.5,91.5C 107.243,93.7986 107.577,95.7986 109.5,97.5 Z"/></g>
<g><path style="opacity:1" fill="#727272" d="M 109.5,97.5 C 110.803,99.1423 112.136,100.809 113.5,102.5C 110.664,101.224 107.664,100.558 104.5,100.5C 104.328,99.5084 104.662,98.8417 105.5,98.5C 107.099,98.7678 108.432,98.4345 109.5,97.5 Z"/></g>
<g><path style="opacity:1" fill="#717171" d="M 102.5,102.5 C 105.522,102.804 108.522,103.304 111.5,104C 109.5,104.5 107.5,105 105.5,105.5C 103.547,104.844 101.547,104.511 99.5,104.5C 100.29,103.599 101.29,102.932 102.5,102.5 Z"/></g>
<g><path style="opacity:1" fill="#0d0d0d" d="M 104.5,100.5 C 107.664,100.558 110.664,101.224 113.5,102.5C 117.961,105.188 119.961,109.188 119.5,114.5C 113.569,113.542 113.236,114.209 118.5,116.5C 118.863,118.911 117.863,120.411 115.5,121C 116.308,121.308 116.975,121.808 117.5,122.5C 115.338,127.792 113.171,133.125 111,138.5C 106.81,141.411 103.31,140.744 100.5,136.5C 100.833,131.833 101.167,127.167 101.5,122.5C 102.873,122.657 104.207,122.49 105.5,122C 97.3826,119.268 97.0493,116.601 104.5,114C 102.527,113.505 100.527,113.338 98.5,113.5C 98.3379,111.473 98.5045,109.473 99,107.5C 101.443,108.285 103.943,108.119 106.5,107C 103.639,107.03 101.305,106.197 99.5,104.5C 101.547,104.511 103.547,104.844 105.5,105.5C 107.5,105 109.5,104.5 111.5,104C 108.522,103.304 105.522,102.804 102.5,102.5C 102.833,101.5 103.5,100.833 104.5,100.5 Z"/></g>
<g><path style="opacity:1" fill="#686868" d="M 99.5,104.5 C 101.305,106.197 103.639,107.03 106.5,107C 103.943,108.119 101.443,108.285 99,107.5C 98.5045,109.473 98.3379,111.473 98.5,113.5C 100.527,113.338 102.527,113.505 104.5,114C 97.0493,116.601 97.3826,119.268 105.5,122C 104.207,122.49 102.873,122.657 101.5,122.5C 101.167,127.167 100.833,131.833 100.5,136.5C 99.8333,136.5 99.5,136.167 99.5,135.5C 100.334,126.991 99.0008,118.991 95.5,111.5C 95.584,108.318 96.9173,105.985 99.5,104.5 Z"/></g>
<g><path style="opacity:1" fill="#777777" d="M 119.5,114.5 C 119.672,115.492 119.338,116.158 118.5,116.5C 113.236,114.209 113.569,113.542 119.5,114.5 Z"/></g>
<g><path style="opacity:1" fill="#0e0e0e" d="M 95.5,111.5 C 99.0008,118.991 100.334,126.991 99.5,135.5C 98.4396,127.587 97.1063,119.587 95.5,111.5 Z"/></g>
<g><path style="opacity:1" fill="#747474" d="M 107.5,122.5 C 109.758,122.775 110.092,123.775 108.5,125.5C 107.167,126.833 105.833,126.833 104.5,125.5C 105.993,124.859 106.993,123.859 107.5,122.5 Z"/></g>
</svg>
